<svg id="Layer_1" enable-background="new 0 0 512 512" viewBox="0 0 512 512" xmlns="http://www.w3.org/2000/svg"><g clip-rule="evenodd" fill-rule="evenodd"><path d="m193.668 340.002c7.966 18.048 16.43 35.723 25.765 52.775 13.194 23.026 28.752-17.177 27.756-30.246-2.489-10.456-12.945-16.057-24.77-20.911-9.582-.622-19.166-1.119-28.751-1.618z" fill="#c69e00"/><path d="m200.639 186.036c6.223-22.281 15.683-42.32 28.503-59.869 14.314-19.542 13.194-16.305 34.601-3.859 34.104 19.542 71.943 53.771 91.11 88.248 4.356 7.717 0 9.709-11.948 14.812-5.477 2.862-10.207 6.721-13.692 12.322-23.524-13.692-47.049-27.507-70.698-41.199-14.438-3.36-28.876-6.721-43.19-10.082-4.978-.124-9.832-.249-14.686-.373z" fill="#c69e00"/><path d="m55.26 258.102c14.438-12.322 32.237-20.288 51.156-26.884 74.059-67.587 144.507-64.723 228.772 4.356 15.808 13.069 23.525 25.64 45.058 9.709 17.55 19.915 16.927 40.078 2.365 60.367-17.924-6.224-29.872-9.46-44.436 3.983-22.031 20.536-49.289 33.606-84.141 35.597-56.632 3.361-105.175-7.593-146.374-31.117-25.392-9.211-46.427-23.276-56.385-49.165-.496-2.489 1.495-4.73 3.985-6.846z" fill="#fcc900"/><path d="m55.26 258.102c14.438-12.322 32.237-20.288 51.156-26.884 4.232-3.734 8.34-7.344 12.448-10.705 43.066 38.585 34.353 75.055-8.837 94.969-.872-.499-1.619-.872-2.365-1.369-24.397-8.837-44.809-22.156-55.14-46.179-2.117-4.853-1.619-6.097 2.738-9.832z" fill="#c69e00"/><path d="m52.521 267.811c-.498-.996-.871-1.866-1.245-2.862-.498-2.49 1.494-4.731 3.983-6.847 6.347 4.855 13.194 8.963 20.786 11.7 8.587 2.988 5.974 10.082-3.236 7.593-7.84-2.116-14.438-5.601-20.288-9.584z" fill="#4d331e"/><path d="m89.116 251.381c4.854 0 8.837 3.983 8.837 8.837 0 4.855-3.983 8.837-8.837 8.837-4.855 0-8.837-3.982-8.837-8.837-.001-4.853 3.982-8.837 8.837-8.837z" fill="#fffadd"/><path d="m89.116 255.613c2.613 0 4.605 1.992 4.605 4.605 0 2.615-1.992 4.606-4.605 4.606-2.615 0-4.606-1.992-4.606-4.606-.001-2.613 1.991-4.605 4.606-4.605z" fill="#141515"/><g fill="#c69e00"><path d="m168.277 283.619c21.159-4.356 43.19-3.735 65.346-2.116 22.652 4.978-.499 85.261-62.359 20.538 1.618-5.727.996-11.825-2.987-18.422z"/><path d="m300.96 334.401c9.709 21.035 24.397 34.603 45.432 38.212 16.927-7.966 22.155-25.143 17.426-50.285-10.953.747-21.285-1.992-31.118-7.841-10.58 6.721-21.16 13.318-31.74 19.914z"/><path d="m380.247 245.283c20.412-12.073 40.825-24.147 61.238-36.22 12.819-8.464 23.524-1.12 17.674 13.691-4.731 11.078-9.336 22.031-14.065 32.984-3.485 11.078-2.863 22.902 2.116 35.598 3.236 8.34 6.348 16.678 9.46 25.018 5.477 15.31 2.862 23.773-11.825 18.172-20.786-9.583-41.448-19.292-62.234-28.876 13.194-20.911 15.061-41.2-2.364-60.367z"/></g></g></svg>