<svg id="Layer_1" viewBox="0 0 64 64" xmlns="http://www.w3.org/2000/svg" data-name="Layer 1">
  <path
    d="m19.559 61c-1.313 0-2.635-.446-3.714-1.36-2.421-2.05-2.723-5.688-.673-8.109l7.383-8.717c.355-.421.984-.475 1.409-.117.421.357.474.988.116 1.409l-7.382 8.717c-1.337 1.58-1.14 3.953.439 5.291 1.58 1.338 3.953 1.14 5.29-.438l3.821-4.513-3.133.26c-.562.052-1.034-.364-1.079-.914-.046-.55.363-1.033.913-1.079l5.539-.459c.414-.036.787.179.972.539.186.359.136.795-.126 1.104l-5.382 6.355c-1.136 1.342-2.76 2.033-4.395 2.033z"
    fill="#1b262c"
  />
  <path
    d="m12.299 54.86c-1.358 0-2.659-.476-3.708-1.363-2.421-2.05-2.724-5.688-.673-8.109l5.382-6.355c.26-.31.683-.431 1.067-.306.386.123.658.466.691.87l.46 5.54c.046.55-.363 1.033-.913 1.079-.566.049-1.034-.364-1.079-.914l-.261-3.134-3.822 4.513c-1.337 1.58-1.14 3.953.44 5.291.764.647 1.732.956 2.735.876.999-.083 1.906-.55 2.554-1.315l7.383-8.717c.355-.421.984-.475 1.409-.117.421.357.474.988.116 1.409l-7.382 8.717c-.992 1.173-2.383 1.889-3.915 2.016-.162.014-.324.021-.485.021z"
    fill="#1b262c"
  />
  <path
    d="m40.835 34.658c1.878-.507 3.488-1.533 4.696-2.939-1.705-3.051-4.03-5.779-6.771-7.911-2.352-1.83-4.989-3.212-7.828-4.153-1.103 1.391-1.804 3.078-1.988 4.934-.311 3.142.894 6.114 3.304 8.154 2.409 2.04 5.54 2.737 8.587 1.914z"
    fill="#d44735"
  />
  <path
    d="m47.288 28.678 8.324-23.526-21.833 12.088c-.455.252-.871.545-1.27.856 2.693.999 5.21 2.37 7.479 4.134 2.686 2.089 5.003 4.707 6.782 7.636.195-.381.371-.775.518-1.188z"
    fill="#f8f5ef"
  />
  <path
    d="m30.955 34.271c-1.157-.98-2.575-1.459-3.985-1.459-1.754 0-3.497.741-4.717 2.181-1.065 1.259-1.577 2.857-1.44 4.5.136 1.644.904 3.135 2.163 4.201 2.598 2.201 6.502 1.875 8.701-.722 2.2-2.599 1.876-6.502-.722-8.702z"
    fill="#d44735"
  />
</svg>
