<svg id="Layer_1" enable-background="new 0 0 512 512" viewBox="0 0 512 512" xmlns="http://www.w3.org/2000/svg"><g clip-rule="evenodd" fill-rule="evenodd"><path d="m245.612 330.918c12.753 15.662 30.316 26.065 53.921 29.646-12.529-23.716 4.364-35.351 21.032-47.098 11.41-6.713 22.262-13.76 28.415-23.493-4.922 1.119-9.286 1.007-13.09-.783-30.091 13.872-60.185 27.856-90.278 41.728z" fill="#40494c"/><path d="m384.108 239.631c68.577-62.648 90.952-21.031 49.783 1.902-7.048 3.916-19.578 7.608-19.242 17.452.336 9.845 12.642 15.214 19.689 20.136 53.922 37.813 18.347 75.513-43.181 3.804-2.351-14.432-4.699-28.863-7.049-43.294z" fill="#40494c"/><path d="m92.907 227.661c27.185-38.82 74.395-52.692 141.07-41.952 51.796 24.948 104.711 54.482 150.13 53.922 23.158 3.132 25.731 33.002 7.049 43.294-12.978-10.403-26.402-10.628-40.274-3.915-86.477 61.305-173.289 86.029-263.121 6.824-55.599-23.494-42.846-43.855 5.146-58.173z" fill="#63b0b8"/><path d="m92.907 227.661c27.185-38.82 74.395-52.692 141.07-41.952 51.796 24.948 104.711 54.482 150.13 53.922.672.112 1.343.224 1.902.335-42.958 46.651-204.052-112.877-289.857-2.909-12.978 2.573-24.388 7.719-31.772 19.354-1.007-5.817 1.119-10.403 5.146-13.984-8.278 2.797-13.76 8.166-18.235 14.543-1.118-11.41 14.656-21.255 41.616-29.309z" fill="#141515"/><path d="m192.809 327.785c9.621 12.529 19.689 24.388 33.673 30.206 6.264 2.461 7.719.559 6.041-4.364-4.811-7.16-9.173-14.543-9.845-23.493 1.119-3.244-8.95-3.132-20.696-2.461-1.454 2.238-5.034 1.678-9.173.112z" fill="#40494c"/><path d="m136.761 275.094c26.625 1.455 52.02 4.699 69.472 19.801-18.124 22.598-41.505 12.753-66.228-5.706 5.034-6.041 3.244-10.515-3.244-14.095z" fill="#40494c"/><path d="m82.168 250.147c4.252 0 7.719 3.467 7.719 7.719 0 4.363-3.467 7.831-7.719 7.831-4.362 0-7.831-3.469-7.831-7.831 0-4.252 3.468-7.719 7.831-7.719z" fill="#fcc900"/><path d="m82.168 254.286c1.902 0 3.58 1.567 3.58 3.58 0 2.014-1.678 3.579-3.58 3.579-2.014 0-3.691-1.565-3.691-3.579s1.677-3.58 3.691-3.58z" fill="#141515"/><g fill="#40494c"><path d="m87.762 285.833c26.514 1.902 44.077-16.781 28.862-42.064 19.131 19.466 2.35 47.434-24.387 45.868-1.567-1.23-3.021-2.573-4.475-3.804z"/><path d="m233.977 185.709c17.899-24.052 46.203-35.015 83.791-34.233-22.933 13.648-31.771 32.779-34.009 54.482-4.586-2.35-9.733-3.468-15.214-3.357-13.871-1.454-25.73-6.376-34.568-16.892z"/></g></g></svg>