<svg id="Layer_1" enable-background="new 0 0 512 512" viewBox="0 0 512 512" xmlns="http://www.w3.org/2000/svg"><g clip-rule="evenodd" fill-rule="evenodd"><path d="m389.531 239.923c12.497-8.331 71.043-46.612 56.181-5.404-9.12 26.684-9.232 19.365 9.683 40.982 9.232 9.683 6.418 18.24-6.756 17.001-19.816-1.126-38.28-5.741-55.506-13.961-1.239-12.835-2.364-25.67-3.602-38.618z" fill="#40494c"/><path d="m389.531 239.923c-14.187 7.769-30.624 9.683-49.314 5.855-55.619-22.518-176.653-72.62-224.728-18.127-25.783 9.232-52.017 18.239-62.938 37.267 1.126 1.013 2.251 1.913 3.378 2.926-1.577.676-3.153 1.239-4.729 1.914 16.1 28.26 91.759 33.89 123.172 39.745 17.339 2.364 35.578 3.602 54.381 3.941 78.813 1.351 99.979-45.036 164.38-34.903 10.808-12.496 10.132-25.332-3.602-38.618z" fill="#6c787f"/><path d="m388.855 240.262c-13.961 7.43-30.174 9.232-48.638 5.516-55.619-22.518-176.653-72.62-224.728-18.127-25.783 9.232-52.017 18.239-62.938 37.267 1.126 1.013 2.251 1.913 3.378 2.926 7.994-7.43 19.928 2.478 31.75 12.16-2.927-8.557-9.346-15.65-18.802-21.505 4.166-19.14 34.114-19.703 24.994 5.517 11.034-4.279 13.06-14.862 10.696-23.419 14.862-6.192 29.611.337 44.473 9.683-26.796-30.849-11.597-68.454 21.73 33.326-3.153-49.201-10.584-71.157 2.139-71.157 11.709 0 15.312 25.784 31.187 70.707-13.848-96.602 11.709-88.721 22.743-4.391 10.359-102.007 26.909-44.924 38.618 16.212 13.399-68.566 41.433-83.879 36.142-9.232 15.537-23.194 29.611-62.149 49.427-14.975 7.318-27.134 20.153-24.995 25.895-.675 2.138-11.369 6.079-21.277 11.934-29.833z" fill="#2b2727"/><g fill="#40494c"><path d="m290.452 303.311c8.331 13.399 19.702 21.392 33.438 25.445 42.785 12.498 18.802-37.942 15.988-38.168-4.615-.225-9.007-.9-12.948-2.476-12.159 5.066-24.319 10.132-36.478 15.199z"/><path d="m170.544 308.828c9.233 25.107 26.796 39.969 54.493 42.446 18.353 1.689-5.967-30.062-6.642-29.948-5.066.45-9.458-4.504-7.881-8.557-13.286-1.352-26.684-2.59-39.97-3.941z"/><path d="m150.503 206.823c2.815-16.214 10.584-31.525 22.743-46.162 2.927 2.927 6.531 3.265 11.146.225 2.027 3.603 5.742 4.954 13.286 1.464 2.701 6.192 7.881 7.318 16.1 2.476.337 6.418 4.841 8.557 13.848 6.306-.337 9.344 3.828 14.749 15.199 13.51 1.914 8.332 6.306 13.174 16.663 8.67-.337 7.656 1.802 12.385 8.67 11.146-3.265 6.306-2.927 11.147.225 14.637 12.159-11.596 25.558-20.265 41.545-22.855 3.152 5.742 7.881 8.67 14.974 7.431 2.139 6.08 4.053 12.497 12.835 10.358 1.126 4.278 1.689 9.119 8.106 7.769.563 6.08 3.266 10.809 10.246 13.06-8.445 2.251-14.412 5.517-17.001 10.359-45.259-18.241-131.727-53.595-188.585-38.394z"/></g><path d="m84.076 248.818c-4.278 0-7.656 3.491-7.656 7.656 0 4.166 3.378 7.544 7.656 7.544 4.166 0 7.544-3.378 7.544-7.544s-3.379-7.656-7.544-7.656z" fill="#fefefe"/><path d="m84.076 252.196c-2.364 0-4.278 1.914-4.278 4.278 0 2.251 1.914 4.166 4.278 4.166 2.251 0 4.166-1.914 4.166-4.166-.001-2.364-1.915-4.278-4.166-4.278z" fill="#141515"/></g></svg>