<svg id="Layer_1" enable-background="new 0 0 512 512" viewBox="0 0 512 512" xmlns="http://www.w3.org/2000/svg"><g clip-rule="evenodd" fill-rule="evenodd"><path d="m401.382 236.424c22.8-11.4 44.622-21.388 58.736-19.869 2.389 8.035-1.737 15.743-8.686 23.452-2.931 3.04-6.406 5.754-10.857 7.817-7.058 3.692-7.166 8.36-.109 13.898 9.988 8.142 17.805 16.828 19.868 26.708-15.308 4.017-50.811-15.852-64.925-23.669 1.956-9.445 4.019-18.891 5.973-28.337z" fill="#c69e00"/><path d="m53.737 242.395c15.2.218 28.554-4.017 40.931-10.748 21.063-2.28 39.086-6.731 55.371-12.486 43.537-2.28 86.857-4.017 129.417-1.302 40.497 2.496 88.486 24.428 121.926 18.565 19.108-2.606 21.605 32.354-5.972 28.337-19.868-6.406-44.513 2.171-68.942 9.771-48.423 12.377-105.965 8.36-163.399 4.56-28.771-3.475-58.954-11.509-89.68-21.171-11.4-2.281-20.629-5.754-21.931-13.464 1.302 0 2.606.543 3.908 1.195-.761-.976-1.411-1.953-1.629-3.257z" fill="#6c787f"/><path d="m53.737 242.395c15.2.218 28.554-4.017 40.931-10.748 21.063-2.28 39.086-6.731 55.371-12.486 43.537-2.28 86.857-4.017 129.417-1.302 40.497 2.496 88.486 24.428 121.926 18.565 9.119-1.194 14.44 6.08 14.548 13.68-85.771-9.119-169.588 8.469-261.982-4.559 0 10.423-3.691 17.588-11.942 20.736 8.686-8.686 10.965-18.782 8.469-29.965-10.314 4.886-21.389 6.298-33.548 2.606 12.269.759 22.582-2.389 30.4-10.314-16.395 3.908-33.115 6.296-50.377 5.102-5.429 8.36-14.006 11.617-24.971 11.183 8.686 3.692 17.588 6.948 27.251 7.383 5.212.325 5.212 6.623 1.52 7.057-17.481-.869-33.006-4.994-47.663-10.748-1.954-.76-2.172-3.04-1.629-4.126 1.302 0 2.606.543 3.908 1.195-.761-.978-1.411-1.955-1.629-3.259z" fill="#0a2205"/><g fill="#c69e00"><path d="m315.611 275.076c7.492 8.468 16.069 16.068 26.492 22.474 8.686 3.475 16.611 3.148 23.668-2.28 6.731-5.32 9.229-11.726 3.475-20.194-4.56-4.343-10.097-7.818-16.502-10.314-12.379 3.473-24.756 6.839-37.133 10.314z"/><path d="m232.554 279.418c0 14.658 5.754 26.6 15.634 36.698 7.708-6.732 12.16-15.309 11.508-26.6-5.971-2.498-11.183-5.754-14.765-10.64-4.126.217-8.252.325-12.377.542z"/><path d="m145.371 273.99c3.366 17.046 14.223 27.903 27.36 36.806 3.583-9.012 4.994-18.023 1.304-27.034-10.532-3.041-19.435-8.252-27.252-14.875.543 2.171.216 3.8-1.412 5.103z"/><path d="m295.525 221.441c17.371-2.28 27.034-12.159 37.565-21.171 14.223-11.834 33.115 3.258 49.617 10.314 12.16 4.125-19.542 23.777-28.554 24.103-19.542-4.451-39.086-8.794-58.628-13.246z"/></g><path d="m102.811 236.424c3.692 0 6.731 3.04 6.731 6.731 0 3.692-3.04 6.731-6.731 6.731-3.692 0-6.731-3.04-6.731-6.731s3.04-6.731 6.731-6.731z" fill="#fffadd"/><path d="m102.811 239.899c1.846 0 3.257 1.519 3.257 3.257 0 1.846-1.411 3.258-3.257 3.258s-3.258-1.412-3.258-3.258c.001-1.738 1.413-3.257 3.258-3.257z" fill="#141515"/></g></svg>